<svg xmlns="http://www.w3.org/2000/svg" xmlns:xlink="http://www.w3.org/1999/xlink" version="1.1" x="0px" y="0px" viewBox="0 0 100 125" enable-background="new 0 0 100 100" xml:space="preserve"><path id="icon" d="M78.583,40.444c0-0.674-0.205-1.3-0.558-1.819c-2.065-5.667-9.526-9.877-15.615-9.877c-3.582,0-7.642,1.459-10.797,3.813  c1.032-1.857,1.624-3.996,1.624-6.273c0-2.397-0.656-4.642-1.792-6.566c1.345,0.763,2.9,1.201,4.558,1.201  c5.116,0,9.265-4.148,9.265-9.265c0-5.116-4.148-9.264-9.265-9.264s-9.264,4.148-9.264,9.264c0,1.425,0.321,2.775,0.896,3.98  c-2.083-1.436-4.607-2.279-7.328-2.279c-5.689,0-10.517,3.676-12.246,8.782c-0.267-0.04-0.539-0.067-0.818-0.067  c-2.975,0-5.386,2.376-5.386,5.308c0,2.932,2.412,5.309,5.386,5.309c0.192,0,0.381-0.011,0.569-0.03  c-1.578-0.204-2.797-1.549-2.797-3.183c0-1.479,1.003-2.724,2.364-3.096c0.015,2.186,0.573,4.243,1.544,6.042  c-0.355,0.115-0.727,0.197-1.111,0.237c0.136,0.018,0.275,0.03,0.416,0.03c0.273,0,0.536-0.038,0.789-0.102  c2.212,3.954,6.437,6.629,11.29,6.629c2.688,0,5.183-0.821,7.251-2.224c-0.832,1.452-1.32,3.03-1.32,4.681  c0,0.627,0.116,1.227,0.33,1.802c-0.089,0.266-0.141,0.55-0.141,0.847v10.278H35.282c-1.464,0-2.65,1.187-2.65,2.65  s1.187,2.651,2.65,2.651H18.544c-0.779,0-1.412,0.631-1.412,1.41c0,0.028,0.007,0.055,0.008,0.081  c-0.005,0.055-0.008,0.106-0.008,0.161l-6.352,27.978C9.316,89.985,8.25,91.35,8.25,92.965c0,1.982,1.608,3.591,3.591,3.591  c1.984,0,3.591-1.608,3.591-3.591c0-1.188-0.579-2.238-1.468-2.891l3.098-13.646c0.033,0.002,0.064,0.006,0.097,0.006h27.329  c0.204,0,0.397-0.036,0.579-0.101l2.75,14.069c-0.666,0.65-1.078,1.558-1.078,2.562c0,1.982,1.607,3.591,3.591,3.591  s3.59-1.608,3.59-3.591c0-1.778-1.292-3.25-2.988-3.537l-5.449-27.873c0-0.055-0.004-0.106-0.008-0.161  c0.001-0.026,0.008-0.053,0.008-0.081c0-0.779-0.632-1.41-1.412-1.41h5.003h0.001c0,0,0,0,0.001,0c1.462,0,2.647-1.185,2.647-2.648  v-8.775c1.717,0.926,3.696,1.694,5.732,2.304l-0.633,42.182c0,1.794,1.454,3.25,3.25,3.25h29.678c1.795,0,3.249-1.456,3.249-3.25  L78.583,40.444z M17.856,72.93l2.317-10.205h22.234l1.995,10.205H17.856z"/></svg>
